<svg xmlns="http://www.w3.org/2000/svg" id="SvgjsSvg436131" width="4096" height="3503.848517761361" version="1.1" xmlns:xlink="http://www.w3.org/1999/xlink" xmlns:svgjs="http://svgjs.com/svgjs"><defs id="SvgjsDefs436132"></defs><g id="SvgjsG436133" transform="translate(328, 328) scale(34.400000000000006)" opacity="1"><defs id="SvgjsDefs108245"></defs><g id="SvgjsG108246" transform="scale(0.2559867037620315)" opacity="1"><g id="SvgjsG108247" class="klEwvwKLa" transform="translate(80.09598145313178, -11.467318878199105) scale(2.2939225601518505)" light-content="false" non-strokable="false" fill="#1a65a2"><path fill="none" d="M5.002 4.999h89.996v90.003H5.002z"></path><path d="M54.08 34.855c0-.086-.004-.172-.008-.259l-8.425-.025a5.612 5.612 0 0 0-.009.289l-.001.029c-.129 2.533-.119 9.079 2.742 15.155.01.021.02.043.028.066.221.649.796 1.086 1.428 1.086.618 0 1.173-.408 1.409-1.04l.02-.051c2.908-6.124 2.938-12.688 2.816-15.226v-.024zm-4.221-5.212c-1.857 0-3.464 1.494-4.017 3.641l8.042.025c-.548-2.163-2.154-3.666-4.025-3.666z"></path><path d="M94.164 33.923l-37.285-1.978c-.535-9.509-2.486-13.641-2.57-13.816a.646.646 0 0 0-.58-.364h-1.855c-.178-1.461-.787-2.773-1.875-2.773-1.087 0-1.698 1.312-1.875 2.773h-1.857a.643.643 0 0 0-.579.364c-.084.175-2.033 4.308-2.572 13.817l-37.28 1.977a.645.645 0 0 0-.61.643v9.762c0 .318.232.588.546.636l38.245 5.9c1.04 8.079 2.656 16.776 3.894 22.942H34.687a2.45 2.45 0 0 0-2.464 2.573l-.002 4.809v3.176c0 .357.288.645.644.645h34.27a.643.643 0 0 0 .643-.645v-3.227l-.002-4.758a2.446 2.446 0 0 0-2.461-2.573h-13.23c1.238-6.166 2.854-14.865 3.895-22.941l38.25-5.901a.642.642 0 0 0 .545-.636v-9.762a.647.647 0 0 0-.611-.643zM52.439 50.636c-.434 1.124-1.451 1.848-2.604 1.848-1.171 0-2.225-.771-2.634-1.922-2.967-6.319-2.983-13.088-2.851-15.724.003-.33.026-.663.071-.99l.002-.024a.558.558 0 0 1 .009-.061c.461-3.137 2.737-5.409 5.426-5.409 2.721 0 5.004 2.308 5.438 5.49a.233.233 0 0 1 .004.038l.004.01c.039.307.061.623.063.94.125 2.642.088 9.434-2.928 15.804z"></path></g><g id="SvgjsG108248" class="text" transform="translate(191.7, 321.7345160692037) scale(1)" light-content="false" fill="#1a65a2"><path d="M-150.09 -67.85L-191.7 -67.85L-191.7 0L-150.09 0L-150.09 -11.55L-175.65 -11.55L-175.65 -28.88L-154.79 -28.88L-154.79 -40.14L-175.65 -40.14L-175.65 -56.4L-151.76 -56.4Z M-104.47 0L-87.43 0L-107.9 -67.85L-127.38 -67.85L-147.84 0L-131.2 0L-127.77 -14.59L-107.99 -14.59ZM-125.03 -26.24L-117.88 -56.2L-110.73 -26.24Z M-35.3 -30.94C-38.14 -33.42 -41.81 -35.08 -46.31 -35.93C-42.79 -36.78 -39.83 -38.43 -37.45 -40.88C-35.07 -43.32 -33.88 -46.54 -33.88 -50.52C-33.88 -56.66 -36.39 -61.08 -41.42 -63.79C-46.44 -66.5 -53.72 -67.85 -63.25 -67.85L-82.44 -67.85L-82.44 0L-60.61 0C-51.27 0 -44.01 -1.48 -38.82 -4.45C-33.63 -7.42 -31.04 -12.53 -31.04 -19.78C-31.04 -24.74 -32.46 -28.46 -35.3 -30.94ZM-66.38 -56.49L-61.68 -56.49C-57.7 -56.49 -54.8 -55.92 -52.97 -54.78C-51.14 -53.64 -50.23 -51.7 -50.23 -48.95C-50.23 -43.47 -53.62 -40.73 -60.41 -40.73L-66.38 -40.73ZM-50.86 -13.56C-53.05 -12.29 -56.26 -11.65 -60.51 -11.65L-66.38 -11.65L-66.38 -30.06L-59.33 -30.06C-51.5 -30.06 -47.58 -26.92 -47.58 -20.66C-47.58 -17.2 -48.68 -14.83 -50.86 -13.56Z M40.19 -67.65C36.9 -68.89 33.13 -69.52 28.88 -69.52C22.94 -69.52 17.64 -68.13 12.97 -65.35C8.31 -62.58 4.65 -58.52 2.01 -53.16C-0.64 -47.81 -1.96 -41.45 -1.96 -34.07C-1.96 -26.5 -0.67 -20.02 1.91 -14.64C4.49 -9.25 8.09 -5.19 12.73 -2.45C17.36 0.29 22.81 1.66 29.08 1.66C33.45 1.66 37.45 0.85 41.07 -0.78C44.7 -2.42 47.78 -4.5 50.32 -7.05L43.18 -16.25C40.83 -14.49 38.64 -13.14 36.62 -12.19C34.59 -11.24 32.34 -10.77 29.86 -10.77C25.16 -10.77 21.49 -12.68 18.85 -16.5C16.2 -20.32 14.88 -26.17 14.88 -34.07C14.88 -42.1 16.2 -48.04 18.85 -51.89C21.49 -55.74 25.1 -57.67 29.67 -57.67C31.89 -57.67 33.97 -57.28 35.93 -56.49C37.89 -55.71 39.88 -54.54 41.9 -52.97L49.54 -62.07C46.6 -64.55 43.49 -66.41 40.19 -67.65Z M97.22 -49.54C94.68 -52.28 91.15 -53.65 86.65 -53.65C83.65 -53.65 80.94 -53.05 78.52 -51.84C76.11 -50.63 73.82 -48.82 71.67 -46.41L71.67 -74.21L56.2 -72.65L56.2 0L71.67 0L71.67 -35.64C74.54 -40.08 77.54 -42.3 80.68 -42.3C82.24 -42.3 83.45 -41.79 84.3 -40.78C85.15 -39.77 85.57 -37.96 85.57 -35.34L85.57 0L101.04 0L101.04 -37.99C101.04 -42.95 99.77 -46.8 97.22 -49.54Z M154.84 -10.77C154.29 -11.68 154.01 -13.12 154.01 -15.08L154.01 -35.25C154.01 -41.38 152.28 -45.98 148.82 -49.05C145.36 -52.12 139.91 -53.65 132.47 -53.65C129.53 -53.65 126.35 -53.33 122.92 -52.67C119.5 -52.02 116.15 -51.08 112.89 -49.84L116.41 -39.65C118.96 -40.5 121.44 -41.17 123.85 -41.66C126.27 -42.15 128.33 -42.39 130.02 -42.39C133.29 -42.39 135.57 -41.82 136.88 -40.68C138.18 -39.54 138.83 -37.43 138.83 -34.37L138.83 -32.11L133.55 -32.11C125.65 -32.11 119.61 -30.61 115.43 -27.61C111.26 -24.61 109.17 -20.27 109.17 -14.59C109.17 -9.76 110.7 -5.84 113.77 -2.84C116.84 0.16 120.95 1.66 126.11 1.66C133.16 1.66 138.38 -0.95 141.77 -6.17C142.88 -3.69 144.45 -1.88 146.47 -0.73C148.49 0.41 151.11 1.11 154.3 1.37L157.53 -8.71C156.29 -9.17 155.4 -9.86 154.84 -10.77ZM138.83 -14.39C136.88 -11.06 134.13 -9.4 130.61 -9.4C128.72 -9.4 127.23 -9.97 126.16 -11.11C125.08 -12.25 124.54 -13.87 124.54 -15.96C124.54 -18.57 125.4 -20.5 127.13 -21.74C128.86 -22.98 131.49 -23.6 135.02 -23.6L138.83 -23.6Z M198.95 -2.45L193.76 -12.24C191.8 -11.13 189.94 -10.57 188.18 -10.57C186.48 -10.57 185.24 -11.1 184.46 -12.14C183.68 -13.19 183.28 -14.91 183.28 -17.33L183.28 -41.22L193.57 -41.22L195.23 -51.99L183.28 -51.99L183.28 -65.01L167.82 -63.25L167.82 -51.99L160.47 -51.99L160.47 -41.22L167.82 -41.22L167.82 -17.13C167.82 -4.67 173.49 1.6 184.85 1.66C187.33 1.66 189.83 1.31 192.34 0.59C194.85 -0.13 197.06 -1.14 198.95 -2.45Z"></path></g></g></g></svg>